<svg xmlns="http://www.w3.org/2000/svg" viewBox="0 0 100 100" width="100" height="100" role="img" aria-label="宅建協会松戸支部 ロゴマーク">
  <defs>
    <linearGradient id="lRing" x1="0" y1="0" x2="1" y2="1">
      <stop offset="0%" stop-color="#8fc9a0"/>
      <stop offset="55%" stop-color="#7bb8d6"/>
      <stop offset="100%" stop-color="#eda9bb"/>
    </linearGradient>
    <linearGradient id="lDove" x1="0" y1="0" x2="1" y2="1">
      <stop offset="0%" stop-color="#2f7d55"/>
      <stop offset="100%" stop-color="#1a5c38"/>
    </linearGradient>
  </defs>
  <!-- リング -->
  <circle cx="50" cy="50" r="46" fill="#fbfaf6"/>
  <circle cx="50" cy="50" r="46" fill="none" stroke="url(#lRing)" stroke-width="6"/>
  <!-- 若葉 -->
  <path d="M50 20 q10 -8 22 -6 q-2 14 -16 16 Z" fill="#8fc9a0"/>
  <!-- ハト(松戸のM+翼) -->
  <path d="M30 66
           q-4 -20 14 -28
           q18 -8 30 4
           q-10 -2 -18 3
           q14 2 20 12
           q-16 -4 -26 2
           q10 4 12 14
           q-18 -2 -30 -14
           q-2 8 4 15
           q-8 -2 -6 -12 Z" fill="url(#lDove)"/>
  <!-- 目 -->
  <circle cx="42" cy="44" r="2.4" fill="#fbfaf6"/>
  <!-- ほっぺ(パステル) -->
  <circle cx="36" cy="52" r="4" fill="#f7bcca" opacity="0.7"/>
</svg>
